<svg width="566" height="64" viewBox="0 0 566 64" fill="none" xmlns="http://www.w3.org/2000/svg">
<g clip-path="url(#clip0_8802_42984)">
<path d="M86.51 40.5805C86.51 41.4276 86.33 42.175 85.97 42.8327C85.61 43.4904 85.11 43.9987 84.45 44.3574C83.79 44.7162 83.05 44.8955 82.2 44.8955H78V51.0043H83.1C85.02 51.0043 86.74 50.5758 88.27 49.7188C89.8 48.8617 91 47.6759 91.87 46.1711C92.74 44.6663 93.18 42.9722 93.18 41.0788V20.9987H86.52V40.5805H86.51ZM104.44 38.7569H118.39V33.1464H104.44V26.7786H119.86V20.9987H97.95V50.9943H120.29V45.2144H104.44V38.7669V38.7569ZM122.38 26.948H131.3V50.9844H137.96V26.948H146.84V20.9987H122.37V26.9579L122.38 26.948ZM169.61 35.9566C169.09 35.6776 168.52 35.4683 167.93 35.3089C168.38 35.1793 168.81 35.0199 169.21 34.8206C170.31 34.2526 171.18 33.4553 171.8 32.4289C172.42 31.4025 172.74 30.2266 172.74 28.8912C172.74 27.3665 172.32 26.0013 171.49 24.7955C170.66 23.5996 169.49 22.6629 167.99 21.9852C166.49 21.3176 164.77 20.9787 162.85 20.9787H149.48V50.9744H163.11C165.13 50.9744 166.93 50.6256 168.52 49.9181C170.1 49.2105 171.33 48.2339 172.21 46.9683C173.08 45.7127 173.52 44.2777 173.52 42.6633C173.52 41.1785 173.18 39.8531 172.49 38.6772C171.8 37.5013 170.85 36.5944 169.62 35.9467L169.61 35.9566ZM155.94 26.0312H161.85C162.67 26.0312 163.39 26.1806 164.02 26.4696C164.65 26.7586 165.14 27.1772 165.49 27.7253C165.84 28.2634 166.02 28.9012 166.02 29.6286C166.02 30.3561 165.84 31.0437 165.49 31.6117C165.14 32.1798 164.65 32.6083 164.02 32.9172C163.39 33.2261 162.67 33.3756 161.85 33.3756H155.94V26.0212V26.0312ZM166.12 44.178C165.74 44.7461 165.2 45.1845 164.51 45.4935C163.81 45.8024 163.02 45.9519 162.11 45.9519H155.94V38.2586H162.11C163 38.2586 163.79 38.428 164.49 38.7569C165.18 39.0857 165.73 39.5442 166.11 40.1421C166.49 40.74 166.69 41.4176 166.69 42.185C166.69 42.9523 166.5 43.61 166.12 44.178ZM195.85 38.8665C197.52 38.0693 198.81 36.9432 199.73 35.4982C200.65 34.0533 201.11 32.3791 201.11 30.4657C201.11 28.5524 200.66 26.938 199.76 25.503C198.86 24.068 197.58 22.9618 195.93 22.1746C194.28 21.3873 192.37 20.9987 190.19 20.9987H177.01V50.9943H183.68V40.0723H188.02L194.13 50.9943H201.74L194.86 39.2651C195.2 39.1455 195.54 39.016 195.86 38.8665H195.85ZM193.69 32.7378C193.32 33.3656 192.79 33.8539 192.1 34.1828C191.41 34.5216 190.6 34.691 189.67 34.691H183.67V26.3899H189.67C190.6 26.3899 191.41 26.5593 192.1 26.8882C192.79 27.217 193.32 27.7053 193.69 28.3232C194.06 28.941 194.25 29.6785 194.25 30.5156C194.25 31.3526 194.06 32.0901 193.69 32.7179V32.7378ZM214.36 20.9987L203.61 50.9943H210.38L212.51 44.3773H223.67L225.95 50.9943H232.59L221.59 20.9987H214.37H214.36ZM214.02 39.3548L217.48 28.7716L217.89 26.8483L218.3 28.7716L222 39.3548H214.02ZM234.81 50.9943H241.69V20.9987H234.81V50.9943ZM265.95 41.2881L253.01 20.9987H246.52V50.9943H252.6V30.7049L265.48 50.9943H272.04V20.9987H265.96V41.2881H265.95ZM294.88 34.7907C293.7 33.9436 292.36 33.3856 290.84 33.0966L285.72 32.0502C284.92 31.8609 284.28 31.532 283.81 31.0537C283.34 30.5754 283.1 29.9774 283.1 29.2699C283.1 28.6221 283.27 28.0641 283.62 27.5858C283.96 27.1074 284.45 26.7387 285.07 26.4696C285.69 26.2006 286.41 26.071 287.23 26.071C288.05 26.071 288.79 26.2105 289.42 26.4896C290.05 26.7686 290.54 27.1572 290.89 27.6655C291.24 28.1737 291.42 28.7417 291.42 29.3895H298.09C298.05 27.6455 297.56 26.1009 296.64 24.7656C295.72 23.4202 294.43 22.3739 292.79 21.6165C291.15 20.8592 289.27 20.4805 287.17 20.4805C285.07 20.4805 283.21 20.8691 281.58 21.6564C279.95 22.4436 278.67 23.5299 277.76 24.925C276.85 26.3202 276.39 27.9046 276.39 29.6884C276.39 31.1334 276.68 32.4389 277.27 33.5948C277.86 34.7608 278.69 35.7274 279.76 36.4948C280.84 37.2621 282.08 37.8002 283.5 38.0992L288.92 39.2153C289.81 39.4246 290.51 39.8132 291.03 40.3713C291.55 40.9293 291.8 41.6169 291.8 42.454C291.8 43.1217 291.61 43.7296 291.23 44.2578C290.85 44.7859 290.32 45.1945 289.64 45.4835C288.96 45.7725 288.16 45.912 287.24 45.912C286.32 45.912 285.45 45.7526 284.7 45.4337C283.95 45.1148 283.37 44.6564 282.96 44.0584C282.54 43.4705 282.34 42.7829 282.34 42.0156H275.67C275.7 43.889 276.2 45.5333 277.19 46.9683C278.17 48.3934 279.52 49.5095 281.24 50.3067C282.96 51.1039 284.93 51.5026 287.15 51.5026C289.37 51.5026 291.37 51.094 293.09 50.2768C294.82 49.4597 296.16 48.3336 297.13 46.8986C298.1 45.4636 298.58 43.8392 298.58 42.0255C298.58 40.5407 298.25 39.1754 297.6 37.9198C296.95 36.6741 296.03 35.6278 294.86 34.7807L294.88 34.7907ZM332.48 42.6135L331.99 44.2876L331.5 42.6135L322.27 20.9987H315.41V50.9943H320.7V29.6984L320.64 28.7118L329.93 50.9943H333.89L343.2 28.5624L343.16 29.6984V50.9943H348.45V20.9987H341.51L332.5 42.6135H332.48ZM370.77 32.3691C370.05 31.2729 369.15 30.396 368.03 29.7383C366.66 28.941 365.07 28.5424 363.25 28.5424C361.29 28.5424 359.53 29.0307 357.99 30.0073C356.45 30.9839 355.24 32.3492 354.37 34.1031C353.5 35.857 353.06 37.8301 353.06 40.0325C353.06 42.2348 353.5 44.2079 354.37 45.9519C355.24 47.7058 356.46 49.061 358 50.0476C359.55 51.0242 361.3 51.5125 363.25 51.5125C365.07 51.5125 366.67 51.1139 368.03 50.3167C369.15 49.659 370.05 48.782 370.77 47.6858V51.0043H375.76V29.0507H370.77V32.3691ZM369.96 43.6499C369.43 44.6962 368.69 45.5234 367.75 46.1113C366.8 46.7092 365.71 46.9982 364.48 46.9982C363.25 46.9982 362.2 46.7092 361.25 46.1213C360.3 45.5333 359.57 44.7162 359.05 43.6598C358.53 42.6035 358.27 41.3877 358.27 40.0125C358.27 38.6373 358.53 37.4315 359.05 36.3851C359.57 35.3388 360.31 34.5117 361.25 33.9237C362.2 33.3357 363.27 33.0368 364.48 33.0368C365.69 33.0368 366.8 33.3357 367.75 33.9237C368.7 34.5117 369.43 35.3388 369.96 36.3851C370.49 37.4315 370.76 38.6473 370.76 40.0125C370.76 41.3778 370.49 42.5935 369.96 43.6399V43.6499ZM387.91 30.107C387.07 30.685 386.37 31.4423 385.8 32.3691V29.0407H380.77V50.9844H385.84V39.1356C385.84 38.0792 386.07 37.1624 386.52 36.3951C386.97 35.6278 387.62 35.0299 388.46 34.6213C389.3 34.2127 390.28 34.0034 391.42 34.0034H392.84V28.9012H392.02C390.46 28.9012 389.09 29.2998 387.91 30.107ZM415.27 29.0507H409.38L400.78 38.8167V20.9987H395.71V50.9943H400.78V40.1122L409.49 50.9943H415.66L406.35 39.295L415.27 29.0507ZM432.47 29.9974C430.78 29.0307 428.85 28.5424 426.69 28.5424C424.53 28.5424 422.64 29.0407 420.9 30.0273C419.16 31.0238 417.79 32.389 416.78 34.133C415.78 35.8769 415.28 37.8301 415.28 39.9826C415.28 42.1351 415.78 44.1581 416.77 45.922C417.77 47.6759 419.13 49.0511 420.85 50.0376C422.58 51.0242 424.52 51.5125 426.69 51.5125C428.4 51.5125 429.95 51.2534 431.36 50.7253C432.77 50.1971 433.96 49.4497 434.95 48.4731C435.94 47.5065 436.69 46.3405 437.21 44.9852H431.68C431.12 45.7326 430.42 46.3106 429.57 46.7192C428.72 47.1278 427.77 47.337 426.71 47.337C425.51 47.337 424.43 47.048 423.47 46.4601C422.51 45.8721 421.77 45.055 421.23 44.0086C420.8 43.1715 420.55 42.2448 420.45 41.2383H437.82V40.0125C437.82 37.7803 437.35 35.8072 436.41 34.0632C435.47 32.3293 434.16 30.974 432.46 30.0073L432.47 29.9974ZM420.55 37.8401C420.68 37.1226 420.89 36.4449 421.22 35.8171C421.76 34.7907 422.5 33.9935 423.46 33.4155C424.41 32.8375 425.49 32.5485 426.7 32.5485C427.91 32.5485 428.97 32.8474 429.89 33.4454C430.81 34.0433 431.53 34.8804 432.03 35.9367C432.31 36.5247 432.5 37.1624 432.62 37.8301H420.55V37.8401ZM447.86 23.6993H443.13V27.2569C443.13 27.7851 442.96 28.2136 442.64 28.5524C442.31 28.8912 441.87 29.0606 441.33 29.0606H438.92L438.9 33.4553H442.77L442.79 45.1746C442.79 46.2907 443.05 47.2872 443.57 48.1741C444.09 49.061 444.82 49.7487 445.76 50.2469C446.7 50.7452 447.76 50.9943 448.93 50.9943H453.68V46.5996H449.94C449.34 46.5996 448.84 46.4003 448.45 46.0117C448.06 45.623 447.86 45.1247 447.86 44.5268L447.84 33.4454H453.69L453.71 29.0507H447.86V23.6993ZM474.65 30.0073C473.11 29.0307 471.36 28.5424 469.39 28.5424C467.58 28.5424 465.99 28.941 464.62 29.7383C463.44 30.4259 462.51 31.3626 461.78 32.5186V29.0507H456.81V57.8505H461.88V47.7058C462.59 48.792 463.49 49.6689 464.6 50.3167C465.97 51.1139 467.56 51.5125 469.38 51.5125C471.33 51.5125 473.08 51.0242 474.63 50.0476C476.18 49.071 477.39 47.7058 478.26 45.9519C479.13 44.198 479.57 42.2248 479.57 40.0325C479.57 37.8401 479.13 35.857 478.26 34.1031C477.39 32.3591 476.18 30.9939 474.64 30.0073H474.65ZM473.6 43.6499C473.08 44.6962 472.34 45.5234 471.4 46.1113C470.45 46.7092 469.38 46.9982 468.17 46.9982C466.96 46.9982 465.85 46.7092 464.9 46.1213C463.95 45.5333 463.22 44.7162 462.69 43.6598C462.16 42.6035 461.89 41.3877 461.89 40.0125C461.89 38.6373 462.16 37.4315 462.69 36.3851C463.22 35.3388 463.96 34.5117 464.9 33.9237C465.85 33.3357 466.94 33.0368 468.17 33.0368C469.4 33.0368 470.45 33.3357 471.4 33.9237C472.35 34.5117 473.08 35.3388 473.6 36.3851C474.12 37.4315 474.39 38.6473 474.39 40.0125C474.39 41.3778 474.13 42.5935 473.6 43.6399V43.6499ZM483.4 50.9943H488.47V20.9987H483.4V50.9943ZM510.1 32.3691C509.38 31.2729 508.48 30.396 507.36 29.7383C505.99 28.941 504.4 28.5424 502.58 28.5424C500.62 28.5424 498.86 29.0307 497.32 30.0073C495.78 30.9839 494.57 32.3492 493.7 34.1031C492.83 35.857 492.39 37.8301 492.39 40.0325C492.39 42.2348 492.83 44.2079 493.7 45.9519C494.57 47.7058 495.79 49.061 497.33 50.0476C498.88 51.0242 500.63 51.5125 502.58 51.5125C504.4 51.5125 506 51.1139 507.36 50.3167C508.48 49.659 509.38 48.782 510.1 47.6858V51.0043H515.09V29.0507H510.1V32.3691ZM509.29 43.6499C508.76 44.6962 508.02 45.5234 507.08 46.1113C506.13 46.7092 505.04 46.9982 503.81 46.9982C502.58 46.9982 501.53 46.7092 500.58 46.1213C499.63 45.5333 498.9 44.7162 498.38 43.6598C497.86 42.6035 497.6 41.3877 497.6 40.0125C497.6 38.6373 497.86 37.4315 498.38 36.3851C498.9 35.3388 499.64 34.5117 500.58 33.9237C501.53 33.3357 502.6 33.0368 503.81 33.0368C505.02 33.0368 506.13 33.3357 507.08 33.9237C508.03 34.5117 508.76 35.3388 509.29 36.3851C509.82 37.4315 510.09 38.6473 510.09 40.0125C510.09 41.3778 509.82 42.5935 509.29 43.6399V43.6499ZM527.21 33.9137C528.15 33.3158 529.21 33.0169 530.38 33.0169C531.18 33.0169 531.94 33.1663 532.64 33.4653C533.34 33.7643 533.95 34.1828 534.48 34.7209C535 35.2591 535.42 35.8968 535.72 36.6343H541.12C540.73 35.0398 540.03 33.6247 539.02 32.399C538.01 31.1733 536.76 30.2266 535.27 29.5489C533.78 28.8713 532.15 28.5325 530.37 28.5325C528.22 28.5325 526.27 29.0307 524.53 30.0273C522.79 31.0238 521.42 32.399 520.42 34.1529C519.42 35.9068 518.93 37.86 518.93 40.0125C518.93 42.165 519.43 44.1182 520.42 45.8721C521.41 47.626 522.79 49.0013 524.53 49.9978C526.27 50.9943 528.22 51.4926 530.37 51.4926C532.15 51.4926 533.78 51.1538 535.27 50.4761C536.76 49.7985 538.01 48.8518 539.02 47.626C540.03 46.4103 540.73 44.9952 541.12 43.3908H535.72C535.42 44.1382 535.01 44.776 534.48 45.3041C533.96 45.8422 533.34 46.2608 532.64 46.5597C531.94 46.8587 531.18 47.0082 530.38 47.0082C529.2 47.0082 528.15 46.7092 527.21 46.1013C526.27 45.4935 525.54 44.6564 525.01 43.5901C524.48 42.5238 524.21 41.3279 524.21 40.0026C524.21 38.6772 524.48 37.4614 525.01 36.3951C525.54 35.3288 526.27 34.5017 527.21 33.9038V33.9137ZM565.85 40.0026C565.85 37.7703 565.38 35.7972 564.44 34.0533C563.5 32.3193 562.19 30.964 560.49 29.9974C558.8 29.0307 556.87 28.5424 554.71 28.5424C552.55 28.5424 550.66 29.0407 548.92 30.0273C547.18 31.0238 545.81 32.389 544.8 34.133C543.8 35.8769 543.3 37.8301 543.3 39.9826C543.3 42.1351 543.8 44.1581 544.79 45.922C545.79 47.6759 547.15 49.0511 548.87 50.0376C550.6 51.0242 552.54 51.5125 554.71 51.5125C556.42 51.5125 557.97 51.2534 559.38 50.7253C560.79 50.1971 561.98 49.4497 562.97 48.4731C563.96 47.5065 564.71 46.3405 565.23 44.9852H559.7C559.14 45.7326 558.44 46.3106 557.59 46.7192C556.74 47.1278 555.79 47.337 554.73 47.337C553.53 47.337 552.45 47.048 551.49 46.4601C550.53 45.8721 549.79 45.055 549.25 44.0086C548.82 43.1715 548.57 42.2448 548.47 41.2383H565.84V40.0125L565.85 40.0026ZM548.57 37.8401C548.7 37.1226 548.91 36.4449 549.24 35.8171C549.78 34.7907 550.52 33.9935 551.48 33.4155C552.43 32.8375 553.51 32.5485 554.72 32.5485C555.93 32.5485 556.99 32.8474 557.91 33.4454C558.83 34.0433 559.55 34.8804 560.05 35.9367C560.33 36.5247 560.52 37.1624 560.64 37.8301H548.57V37.8401Z" fill="white"/>
<path d="M20.34 3.66L3.66 20.34C1.32 22.68 0 25.86 0 29.18V59C0 61.76 2.24 64 5 64H34.82C38.14 64 41.31 62.68 43.66 60.34L60.34 43.66C62.68 41.32 64 38.14 64 34.82V5C64 2.24 61.76 0 59 0H29.18C25.86 0 22.69 1.32 20.34 3.66Z" fill="url(#paint0_linear_8802_42984)"/>
<path d="M48 16H8V56H48V16Z" fill="black"/>
<path d="M30 47H13V51H30V47Z" fill="white"/>
</g>
<defs>
<linearGradient id="paint0_linear_8802_42984" x1="0.850001" y1="62.72" x2="62.62" y2="1.81" gradientUnits="userSpaceOnUse">
<stop stop-color="#FF9419"/>
<stop offset="0.43" stop-color="#FF021D"/>
<stop offset="0.99" stop-color="#E600FF"/>
</linearGradient>
<clipPath id="clip0_8802_42984">
<rect width="566" height="64" fill="white"/>
</clipPath>
</defs>
</svg>
