<!-- Uploaded to: SVG Repo, www.svgrepo.com, Generator: SVG Repo Mixer Tools --><!DOCTYPE svg PUBLIC "-//W3C//DTD SVG 1.1//EN" "http://www.w3.org/Graphics/SVG/1.1/DTD/svg11.dtd"[]><svg height="16" width="16" version="1.1" id="Capa_1" xmlns="http://www.w3.org/2000/svg" xmlns:xlink="http://www.w3.org/1999/xlink" viewBox="0 0 296 296" xml:space="preserve"><g>	<path style="fill:#FFB929;" d="M180.368,16h-63.861c-22.135,0-40.312,14.141-41.878,32h147.617   C220.68,30.141,202.503,16,180.368,16z" />	<polygon style="fill:#FFEBD2;" points="88.135,222 208.74,222 214.259,153 82.616,153  " />	<polygon style="fill:#A56905;" points="77.897,94 81.337,137 215.538,137 218.977,94  " />	<polygon style="fill:#A56905;" points="204.102,280 207.461,238 89.414,238 92.773,280  " />	<path style="fill:#FFFFFF;" d="M231.5,64h-61.826c0.748,2.256,1.159,4.664,1.159,7.167c0,2.38-0.367,4.675-1.046,6.833H231.5   c3.859,0,7-3.141,7-7S235.359,64,231.5,64z" />	<path style="fill:#FFFFFF;" d="M64.5,78h61.713c-0.679-2.158-1.046-4.453-1.046-6.833c0-2.503,0.411-4.911,1.159-7.167H64.5   c-3.859,0-7,3.141-7,7S60.641,78,64.5,78z" />	<path d="M254.5,71c0-10.307-6.815-19.052-16.175-21.966C237.429,21.865,211.785,0,180.368,0h-63.861   c-31.32,0-56.904,21.73-57.95,48.783C48.746,51.409,41.5,60.372,41.5,71c0,11.78,8.903,21.515,20.334,22.841l15.579,194.797   c0.333,4.158,3.804,7.362,7.975,7.362h126.1c4.171,0,7.642-3.204,7.975-7.362L235.05,93.725C246.053,92.014,254.5,82.476,254.5,71z    M231.5,78h-61.713c0.679-2.158,1.046-4.453,1.046-6.833c0-2.503-0.411-4.911-1.159-7.167H231.5c3.859,0,7,3.141,7,7   S235.359,78,231.5,78z M57.5,71c0-3.859,3.141-7,7-7h61.826c-0.748,2.256-1.159,4.664-1.159,7.167c0,2.38,0.367,4.675,1.046,6.833   H64.5C60.641,78,57.5,74.859,57.5,71z M154.833,71.167c0,3.768-3.065,6.833-6.833,6.833c-3.768,0-6.833-3.065-6.833-6.833   s3.065-6.833,6.833-6.833C151.768,64.334,154.833,67.399,154.833,71.167z M74.629,48c1.566-17.859,19.743-32,41.878-32h63.861   c22.135,0,40.311,14.141,41.878,32H74.629z M208.74,222H88.135l-5.519-69h131.643L208.74,222z M207.461,238l-3.359,42H92.773   l-3.359-42H207.461z M215.538,137H81.337l-3.439-43h141.08L215.538,137z" />	<path style="fill:#78A0B4;" d="M148,64.334c-3.768,0-6.833,3.065-6.833,6.833S144.232,78,148,78c3.768,0,6.833-3.065,6.833-6.833   S151.768,64.334,148,64.334z" /></g></svg>